<!DOCTYPE svg PUBLIC "-//W3C//DTD SVG 20010904//EN" "http://www.w3.org/TR/2001/REC-SVG-20010904/DTD/svg10.dtd">
<svg version="1.0" xmlns="http://www.w3.org/2000/svg" width="323px" height="168px" viewBox="0 0 3230 1680" preserveAspectRatio="xMidYMid meet">
<g id="layer1" fill="#F7BB97" stroke="none">
 <path d="M80 1634 c-43 -37 -60 -75 -60 -135 0 -121 118 -236 353 -343 59 -27 75 -40 79 -59 5 -25 4 -24 -51 13 -85 56 -138 73 -220 68 -75 -4 -106 -19 -145 -72 -19 -25 -21 -41 -20 -159 0 -124 2 -135 28 -187 45 -88 101 -155 170 -205 95 -67 159 -87 286 -88 116 0 173 12 238 50 l44 25 -7 51 c-8 59 -9 59 70 -14 124 -114 183 -134 244 -83 46 39 57 86 38 175 -41 196 -49 256 -38 278 16 29 41 26 87 -8 64 -46 71 -59 83 -158 6 -51 14 -106 17 -122 6 -28 4 -30 -27 -33 -34 -3 -34 -3 -32 -51 4 -65 16 -85 56 -89 32 -3 32 -3 44 -81 23 -150 78 -273 151 -338 51 -45 93 -59 175 -59 51 0 62 4 86 28 20 19 30 43 36 77 8 58 21 85 38 85 7 0 29 -14 50 -31 20 -17 41 -28 46 -25 5 3 7 24 4 46 l-6 40 47 -20 c58 -24 114 -26 123 -4 4 12 -21 164 -44 261 -5 21 -1 22 59 25 l63 3 -1 53 c-2 72 -13 82 -90 82 -74 0 -65 -17 -89 163 -9 66 -14 130 -11 143 13 50 115 41 207 -17 64 -41 74 -54 97 -135 24 -88 17 -109 -28 -75 l-32 23 -29 -28 c-16 -16 -28 -33 -27 -39 4 -14 127 -127 182 -167 57 -41 116 -40 161 5 48 48 52 87 25 241 -35 193 -30 214 37 179 55 -28 119 -111 131 -169 15 -69 3 -86 -56 -82 -46 3 -47 3 -45 -26 3 -43 52 -116 102 -151 38 -27 51 -30 116 -30 84 0 117 17 148 76 16 29 17 49 13 134 -3 55 -17 149 -31 210 -14 60 -25 111 -25 112 0 8 109 -53 180 -102 44 -30 83 -55 85 -55 3 0 12 14 21 31 15 31 15 32 -18 66 -38 40 -176 134 -259 177 -51 27 -57 34 -79 90 -58 153 -137 282 -222 366 -77 76 -110 90 -214 90 -101 0 -141 -18 -169 -76 -27 -57 -17 -150 20 -204 45 -66 135 -132 265 -196 96 -48 120 -64 129 -88 6 -16 11 -31 11 -33 0 -2 -24 13 -53 32 -115 76 -262 101 -326 56 -34 -25 -61 -68 -61 -100 0 -17 -9 -13 -62 27 -99 74 -178 106 -268 106 -58 1 -83 -4 -109 -19 -42 -25 -71 -77 -71 -128 l0 -39 -64 60 c-107 100 -237 150 -319 123 -43 -15 -87 -63 -87 -97 0 -24 -1 -23 -47 13 -77 58 -149 87 -220 88 -52 0 -66 -4 -88 -25 -15 -14 -35 -41 -44 -62 l-17 -36 -71 39 -70 39 -28 78 c-61 171 -125 283 -208 359 -76 70 -111 83 -226 83 -93 0 -102 -2 -131 -26z m231 -281 c54 -60 55 -66 2 -34 -55 34 -75 61 -45 61 10 0 29 -12 43 -27z m2190 0 c14 -16 32 -37 40 -48 14 -19 14 -19 -13 -2 -67 42 -77 49 -82 63 -10 25 29 16 55 -13z m-1674 -417 c13 -12 63 -189 63 -223 0 -29 -10 -29 -44 -2 l-27 21 -28 -26 -28 -27 -7 33 c-4 18 -16 85 -27 148 -11 63 -22 123 -25 133 -5 15 5 13 53 -14 32 -18 63 -37 70 -43z m775 -7 c107 -84 121 -104 138 -206 l16 -93 -117 0 c-95 0 -118 3 -123 15 -8 22 -25 169 -28 243 -2 47 2 66 12 72 27 17 47 11 102 -31z m-1217 -22 c81 -85 126 -226 76 -242 -26 -8 -80 16 -112 51 -55 59 -101 178 -86 219 4 10 19 15 43 15 31 0 45 -8 79 -43z m1395 -426 c0 -5 3 -23 7 -41 l6 -33 -24 16 c-69 49 -159 -6 -159 -97 0 -59 -17 -41 -38 42 -36 138 -48 122 89 122 65 0 119 -4 119 -9z"/>
 <path d="M973 393 c-33 -6 -73 -59 -73 -95 0 -72 85 -148 174 -156 48 -4 55 -2 84 28 58 57 52 111 -18 174 -51 46 -104 61 -167 49z"/>
 </g>

</svg>
