<?xml version="1.0" standalone="no"?>
<!DOCTYPE svg PUBLIC "-//W3C//DTD SVG 20010904//EN"
 "http://www.w3.org/TR/2001/REC-SVG-20010904/DTD/svg10.dtd">
<svg version="1.0" xmlns="http://www.w3.org/2000/svg"
 width="300.000000pt" height="156.000000pt" viewBox="0 0 300.000000 156.000000"
 preserveAspectRatio="xMidYMid meet">
<metadata>
Created by potrace 1.10, written by Peter Selinger 2001-2011
</metadata>
<g transform="translate(0.000000,156.000000) scale(0.100000,-0.100000)"
fill="#275aac" stroke="none">
<path d="M1454 1533 c-116 -40 -198 -182 -219 -377 l-7 -66 -38 0 c-34 0 -38
-3 -44 -31 -12 -62 -9 -69 30 -69 29 0 34 -3 30 -17 -2 -10 -12 -69 -22 -131
l-16 -113 -42 -33 c-61 -49 -82 -59 -106 -46 -33 18 -34 55 -5 206 30 161 28
202 -12 234 -53 41 -104 21 -223 -89 l-65 -60 22 -22 21 -22 30 22 c28 19 32
20 46 5 9 -8 16 -18 16 -22 -1 -11 -59 -214 -62 -218 -6 -6 -150 -84 -155 -84
-3 0 -3 6 0 13 3 7 22 107 42 222 35 201 36 208 18 226 -43 43 -252 66 -353
39 -189 -50 -337 -258 -325 -455 6 -110 66 -168 169 -167 84 1 158 35 233 105
18 17 35 29 37 26 3 -3 -3 -27 -12 -53 -16 -48 -20 -51 -102 -89 -186 -87
-278 -166 -300 -256 -14 -58 -1 -120 31 -150 29 -27 109 -44 161 -36 154 25
266 151 343 385 l32 95 71 41 c39 22 78 46 86 54 14 11 16 8 16 -21 0 -19 9
-48 20 -66 45 -75 194 -47 314 58 l46 41 0 -42 c0 -33 6 -48 30 -72 29 -28 35
-30 89 -26 104 7 229 88 303 196 41 59 18 44 -59 -38 -80 -86 -166 -134 -240
-133 -73 0 -103 22 -103 73 0 49 -28 62 -62 30 -78 -73 -155 -105 -243 -101
-45 2 -60 17 -75 73 -6 20 -15 40 -19 43 -11 6 -40 -6 -102 -43 -86 -50 -89
-54 -118 -143 -54 -163 -130 -282 -216 -340 -66 -45 -167 -56 -230 -26 -51 25
-55 31 -55 99 0 62 7 91 21 82 5 -3 6 1 3 9 -5 15 77 96 124 120 148 78 222
119 230 130 20 24 34 97 22 112 -9 11 -22 6 -70 -31 -76 -57 -121 -76 -195
-81 -45 -3 -68 1 -93 14 -18 10 -32 22 -32 26 0 4 -6 15 -15 23 -8 9 -16 25
-16 37 -5 75 -5 96 2 137 17 108 108 238 209 298 108 63 289 73 393 21 43 -22
43 -25 22 -154 -9 -49 -18 -106 -21 -125 -3 -19 -12 -68 -19 -108 -11 -66 -11
-74 5 -82 10 -6 25 -4 41 5 13 8 47 25 75 40 57 28 62 36 94 157 31 113 31
117 10 138 -23 23 -50 26 -68 8 -9 -9 -15 -9 -23 -1 -7 7 9 27 57 67 36 32 77
64 90 72 32 22 73 14 97 -18 l21 -28 -29 -170 -28 -171 20 -27 c25 -34 71 -40
110 -15 60 38 90 74 96 111 40 247 40 251 -5 252 -13 0 -18 8 -18 30 0 26 4
30 28 30 34 0 52 16 52 48 0 14 4 41 9 61 5 20 15 61 21 91 17 72 47 137 85
179 53 59 142 91 192 68 22 -10 53 -72 53 -106 0 -10 10 -31 22 -46 18 -23 27
-26 55 -22 26 5 33 2 33 -11 0 -32 27 10 33 52 l6 39 -32 -31 c-18 -18 -41
-32 -50 -32 -23 0 -45 37 -53 90 -5 31 -17 54 -37 73 -33 31 -67 33 -133 10z"/>
<path d="M955 1405 c-57 -20 -105 -75 -105 -120 0 -53 28 -75 94 -75 38 0 62
6 86 23 44 29 74 80 66 111 -16 62 -71 87 -141 61z m112 -45 c9 -18 9 -30 -1
-54 -19 -46 -58 -70 -118 -71 -47 0 -54 3 -66 27 -11 23 -10 32 2 56 19 36 37
51 82 67 46 16 85 6 101 -25z"/>
<path d="M1817 1355 c-43 -16 -97 -55 -76 -55 8 0 27 7 42 15 15 8 44 19 63
24 31 9 34 8 34 -12 0 -12 -10 -70 -22 -129 -26 -126 -23 -133 52 -129 38 1
50 -1 50 -13 0 -39 -11 -46 -71 -46 -45 0 -60 -4 -68 -17 -18 -35 -34 -140
-35 -232 -1 -90 0 -94 26 -114 37 -28 103 -25 170 6 82 39 121 82 146 162 27
84 27 97 2 120 -17 15 -26 17 -55 8 -39 -12 -55 -1 -27 19 11 7 41 33 68 57
58 52 105 74 139 65 59 -15 68 -78 35 -235 -11 -52 -20 -108 -20 -125 0 -57
58 -81 118 -50 31 17 92 79 92 95 0 6 4 11 9 11 14 0 43 95 39 127 -3 25 -44
63 -80 75 -8 3 -4 18 12 42 53 87 211 99 241 18 19 -50 5 -197 -35 -366 -24
-102 -16 -106 102 -44 53 28 104 57 113 64 20 18 35 18 20 0 -16 -20 -133 -92
-144 -88 -5 1 -6 -2 -3 -7 4 -5 -4 -13 -16 -17 -12 -3 -26 -11 -32 -16 -6 -5
-27 -17 -46 -27 -29 -15 -40 -31 -65 -92 -81 -196 -190 -346 -281 -387 -68
-29 -165 -18 -201 23 -28 32 -31 110 -7 161 25 52 106 115 229 179 61 31 118
64 127 73 25 25 45 109 30 124 -9 9 -22 5 -57 -20 -25 -18 -50 -32 -55 -32 -6
0 -10 -3 -10 -7 0 -13 -72 -42 -125 -51 -96 -16 -155 16 -155 83 0 18 -7 38
-15 45 -12 10 -21 8 -48 -14 -141 -115 -262 -154 -360 -117 -37 14 -47 40 -47
118 0 48 -3 63 -10 53 -5 -8 -10 -43 -10 -76 0 -73 21 -106 77 -125 84 -27
235 23 335 111 25 22 48 40 50 40 3 0 5 -17 6 -37 5 -137 206 -143 373 -12 20
16 39 29 42 29 3 0 -2 -23 -11 -51 -16 -51 -17 -52 -112 -98 -220 -109 -291
-180 -293 -296 -2 -92 50 -138 158 -139 139 -1 262 122 364 361 21 48 40 95
44 104 3 9 43 37 89 62 98 54 152 90 202 134 32 29 35 35 24 57 l-11 25 -36
-27 c-47 -36 -81 -58 -165 -104 -67 -37 -90 -42 -69 -16 24 30 63 246 64 348
1 88 -17 118 -80 139 -106 34 -210 -28 -245 -146 -6 -20 -4 -21 35 -16 48 7
69 -11 69 -59 0 -58 -76 -165 -140 -198 -78 -40 -91 -5 -60 155 28 144 24 209
-14 242 -55 47 -110 26 -234 -87 l-60 -55 19 -23 c18 -23 19 -23 48 -6 32 19
61 13 61 -12 0 -9 -9 -47 -21 -85 -17 -55 -28 -75 -57 -98 -46 -36 -97 -62
-140 -72 -36 -8 -97 5 -108 23 -7 11 -7 85 0 123 2 11 9 59 16 108 l13 87 67
0 68 0 6 36 c4 19 10 42 13 50 4 11 -9 14 -67 14 -41 0 -69 4 -65 9 5 9 55
245 55 262 0 13 -50 10 -93 -6z"/>
<path d="M1455 1307 c-16 -25 -55 -168 -55 -204 0 -12 5 -25 11 -29 6 -3 65
-7 132 -7 135 0 139 2 152 73 15 81 3 100 -46 71 -19 -12 -48 -21 -65 -21 -34
0 -42 11 -50 65 -11 72 -49 97 -79 52z m53 -33 c7 -81 26 -104 82 -104 27 0
48 8 71 28 28 23 32 24 25 7 -4 -11 -10 -41 -13 -67 l-6 -48 -129 0 c-107 0
-129 2 -125 14 3 7 13 45 23 82 20 83 41 127 57 121 7 -2 13 -17 15 -33z"/>
<path d="M1448 1012 c-42 -2 -60 -8 -67 -20 -12 -22 -30 -141 -36 -238 -6 -84
4 -106 53 -125 29 -11 103 26 154 77 18 18 41 34 50 34 24 0 27 8 48 132 16
91 17 115 7 125 -13 14 -109 20 -209 15z m198 -37 c-3 -8 -10 -60 -17 -117 -7
-57 -14 -105 -16 -108 -2 -2 -8 2 -13 10 -6 10 -21 2 -65 -39 -74 -67 -106
-84 -138 -72 -13 5 -27 16 -30 25 -7 17 -2 89 14 223 l11 92 87 3 c122 4 173
-1 167 -17z"/>
<path d="M355 961 c-87 -39 -170 -206 -140 -279 27 -62 101 -55 168 17 92 98
127 222 76 264 -27 22 -53 21 -104 -2z m93 -13 c17 -17 15 -81 -3 -124 -22
-54 -83 -133 -116 -149 -63 -33 -114 -4 -102 59 7 35 53 129 80 164 43 53 113
78 141 50z"/>
<path d="M315 390 c-85 -41 -131 -103 -100 -134 19 -19 29 -20 58 -5 59 30
120 119 102 149 -8 13 -13 13 -60 -10z m35 -32 c-42 -60 -83 -98 -108 -98 -19
0 -23 5 -20 23 2 14 26 38 73 69 38 25 71 45 73 43 3 -2 -6 -19 -18 -37z"/>
<path d="M2360 396 c-57 -24 -129 -87 -130 -113 0 -7 11 -19 23 -28 44 -29
104 14 155 111 15 28 -12 45 -48 30z m40 -12 c0 -9 -70 -96 -90 -111 -18 -15
-47 -17 -55 -3 -10 16 21 52 77 87 53 33 68 39 68 27z"/>
</g>
</svg>
